<mxfile host="app.diagrams.net" modified="2021-05-24T14:44:16.991Z" agent="5.0 (Macintosh; Intel Mac OS X 10_15_7) AppleWebKit/605.1.15 (KHTML, like Gecko) Version/14.1 Safari/605.1.15" etag="Vq0qqxmXSHi2CFykBpYM" version="14.7.0" type="github">
  <diagram id="4yYH3lNlBNUkoaNyeF3B" name="Page-1">
    <mxGraphModel dx="1617" dy="501" grid="0" gridSize="10" guides="1" tooltips="1" connect="1" arrows="1" fold="1" page="1" pageScale="1" pageWidth="827" pageHeight="1169" math="0" shadow="0">
      <root>
        <mxCell id="0" />
        <mxCell id="1" parent="0" />
        <mxCell id="7Kn5XyeDIOlXOPeCKVWs-1" value="" style="shape=image;verticalLabelPosition=bottom;labelBackgroundColor=#ffffff;verticalAlign=top;aspect=fixed;imageAspect=0;image=data:image/png,iVBORw0KGgoAAAANSUhEUgAAAOEAAADgCAMAAADCMfHtAAAAkFBMVEUQIYv///8AAIMAEYcABYWusdB8gbXZ2+gAAIEAAIUEG4k9R5o6RJgAF4hBS5wAGYnj5PDo6fMADodkaahfZqjNz+KzttNOVqDIyt/z9Pn09PmEibr5+v3s7fTS1OUmM5KWmsMTJI28v9idocdtc652e7JYX6QbKo8zPpZJUp6Mkb6mqcvAwtqCh7mQlMArN5MgV+BBAAAP3ElEQVR4nO2dC3OqPBCGJaAmOUUUFOv9rm219f//uwMqkF0SiEpBO74z33xnrAIP5LLZ3Sw146+r1py9Xa9/Bap1lf4dP+aD05WPNmuvu+33Pz+DT0NJr/To15qEVyxHXxb9qI9PfJ0ZM0070Olz9cFZPSCsPYm4xTbNS9NbEq73I+t5CB2yWI2jvtWguj97GkKb/jvEY8fkw9L+4ZMQmrQ7TQbHA3P0f/oUhCZdt4XR/0u7hYZ6AkKbrjsC37jPrvr5wxPa1BP5jM7CvO4AD07ISb8p8hkH3Uki1mMTstk7NMBWV3XBkx6Z0GR7ZGGub7jUxyXkdD1GgJ/6s2CihyUkuynim8yuHGPOelBCTr8Qn9EmV0zzgh6T0Do2MeD71YNodKwHJOR0hPkM//pB9KIHJDTNXgrwhlki0uMRkj4eQq+1RKEejpDOU3zG5p4rrISQ26ZpSwcOh6VbqLG+ztRGKp/QZuTD22y6M0JcTOkeJ2nA7V2ApRM6tHu49LPxdD6jYBJn3TSf0b/FkBFUMiFrtcHlNxskAUjP8oE+3TtPWS4hXaUIxnN2YaD13wAsl5C8SxiM8Rexw5Wg7I+tuwFLJaSScfKkTp/YLGWnFfIESyWkvgIwkD+TDKKFAJZIaDXUgHL1iwAsj5DPrgXc3jlNXFQaIcEL2pIASyO0vWDy8/f194EmYLcgwNIIzdGaEWYxRvqHfLx7bVFRpbVS0778wybYRShRozDAStYWnG5z2upXgZdUzfrQJhlzo2Hs71jwplTVCph00yv5SIciAatb45tcZqaddGVwKUfVeTE4xT77WBt6o+dQpir9NMRTtdR3pxCD7aRKPVGS5WLxj7FKQn5UAhpGb/FkVptMNNtU/aK3BSqQKiQ0vUxAw2i3iriyCglpJ4fQMOrsubwYUOY6F9Awxo27m2p1hBqPMFSzdWtY7aLKCG2Z91eqZe3JvPoXUaXRltbqnu5YFaHzTx8w6I7f9KYYfqiqCBlaPo0lQTVRkzW1848qU2WEiGBENznPsd29jbEiQhPxtGmN9fPaarN/C2NFhAy5aj6DSzd3Mr/33YwVEVJ45YfTJTiYW6Lp9lrGaggd1CJnl0md/uQiGk3vunG1GkITJsws4ytgfQ2PcadBrpgfqyF04dK3ldieNlvmIxrDuct0bblqCC0Q7m0D3xr1tBz/9RnR65DVEML5fg7bXDqtVK73rVaHfATCFl4gsZ1OUw065DfL35fwCIRpBzAnO1nagkR+Pw/xAQg7svNzxhpaEcefvGH1AQh7ivObxGksM8yccEDqvOWuHR+A8KC8SG4yuvB+/GmzPRiMx+PBpN1u9pb+6mvTr60D+JVG3nBFhGIvW2Y+Bm67jBFCaKjg/4QxZlm0FSyg2x86i/+K5sO9NqFEnO1CA3ak56SqyKb50WqlUnFWC9v4O9f0iVdkl4rLw/drCDlzwuc/6GrHNaoh5G8CYVv//Be+YITRX148wvpQN+Qb9L/TCNWbXfPUq1rjiykn/7QanEOOpzmm410XeKuI0N4KhHONMcOkrZMDYDx6jjU+9OlP8popt8j67EC+wTdcFSEYTTeZl20TPj8bb3X7Bv9+dV594SGOa8q522bEu/in/IX2ul5UdZEZ0Rk1saWjf4DX9y/ZDP7uJr4qo2tEtNzGKYe24xLm+cPL3/3ZzTG2KmPAYP033VLLDgt4OLbpMkJbP0lWeP229nlWlZkKKHl9svdax+PHp9eY+8Jfhit9v5pMlWabyHcnAE035Ln2zCBJtlKCp7o6XmGAKlTx7jxrp3yM7dU/ahWQGFX1/kNOPiSppoPD945ahSQMVU548qp5frLfazDdb2aEmYVlJ1ZPWDvN7HTW73rd7ZFQYhVHF+ohCEMF82CgQtnOehjCX9OL8Pn1IpTKJpHushjL0S2EbNscDIeTTrs5XX48POINhK5oTEpDYw+lGwgJSAwtahPdr+kWQrCl/ncuq0DdTbh79I54N+HxzxO+/XnC1t8nLGad+nu6m/DzzxPmZuxUrbsJtzcmmJemF6FEL8IH04tQIkjYfRFWrRehRC/CB9OLUCJI6P0BQpuFibnBf5dwrA4hd9nZn+qKhrljm4EUt4TbrsUSR6yre+dsN/oVk0at8gjD6F69OTSMcWfZME8O4HxCm8y+Dp2hMZ705q14j5Jt9deb71Fjm3YjOy4hu+5of5i2J4PhcNiZLn+6Zrr6Z/pMjPXnh+ZgbIwH7fdT5BFfTw6hZe/F+iP+zson5OBdFEZndI7F25/RkQbIt2PRz3lPshWo+VPLzqJx43ypWBO/j1IXMwklVbV/aB6hO8P7JAZecAbOkw/qopOVu6uhodIyI5XUpiPpDqkmvIFZhLYj2VHeYzSTkMhKJfgEJK+Lmd28pi6nFGquSlwkfdVeDOiHzyC0j9J7284klBU6NsJdI+KT7wmE5ncmYPhlaUvNqG0Dk47VhM5OcXM7wKsPCYlqE2hdzHsWz2jnVTgxZNfHiapSaKCJ5jNkufuO04Su+nLFHi2ekS9yT7FMXSCXVjuN5IO+qyQkehvkAKHG1Z4Ezkjz72TKbiKZJSfgklVFqF2YQyTUyFM7Cew/0NgWO0FXSDNLLw7gt1WERK+2CiC0c2sGXAQIc4eaQGtYFFtWMzrRCgb8FIRa5XFOEgi1S5QCQp2mPQU/yCqgFWihNeOnG/rS29X6kg26CSH/SP3RX8+clNmBd8nEN2bSO9Tr+/2+vuzhYVy8akkBrbYf/MzvnXr0HNkIcsJUSdzJB7E5t5mVGqQTQoY3th4YM4Mf0VTjhYT8I5h3O/7apqGBb1lhkVNcB6SRNFOwVeN8ng/KTj+jtcbyG9PICV00b08ie5anKlYnhATZUPFLN1z8cFHw32FHN165RLcLIgo7+FKPcJsYotxkqXxUOSFupP+SpmihBhQTOi2EkVgWDA0mqfQGidUCy0gl1wg2hYV6y9ljIie04EHehW9YaCCLCV1kznjC3URVr3QSOEAqvzBfEDQWeDftdMaFOYDdwhR/Q/PaUDQOXXhbdAhhBZtxfDQCDYT8WqdSQhelX4PRicHpNiaEiyqjLv6I164mRI0+AsED9ix3kSwlRKMi3E5uwtrqMSEdyz+X4OsQ8p30JqObr9rpnksIB0xoJKAJN2ml8ObC0QPesyxCHm4oYYRQW0qI+kIjP5VfSoiG0jUayMHDiggR+BAeFBakkVdRMMN5kL11v+f+odlGU4+iL2hk88gJYW9GezzlXgw0OqGDwmlaQmiSXaPe6yjX+xEK7AtDjeYuJ4QnQmYQXHxGhGgxgragQyMpReiy75wSfJHvBfYFnU3S8n4ICdGADLtCRIhs9Tq6LeDKECGno2xfjREnJqH5vqex41I+W4DD4NUZHDWi1SkaYlFVHbh5GxK6HxortUtPQUapTjkGKaEJDoPbFCj5EBOiSf0LE45VR5S+AimlS9oO8ur4txLCgRo3di3CbzSMU3FsFAkzXDuiLmk7OX2hKELgx7uT0MGGdA4hXHLUbx1pclqpDuEIt1IFIdHz6Bl9W0r4OyONVivFxY0U/RAvSAI1l6vRutuacfDpxX9mw1Z6cz+Es8UAzxY6YylyB6nGUjQvGe31KUhm2o4Du0pEmDnr6hOSK+bDyDlp3zIf4iKfdaECmyMjRJaThuGtZbXh2EtPcmo8U2GbBlitMSEqdgleNgqf4aWpoBXHzTYNsrxRgiV0pUaEyNrAdiloXTEhdO2ARXMN9sPIdEJlQW/uh/DWoiUKNA1jFzr0fIzhQeE4FBPC5wSsBORGjQhR89LIUNZZAe+R809OiFbAcPENi+xFhGjFBZZC6DTry2kyl676hGjkh19AXvi4CaOVG3zwMPwSEcJxA8YbUIggWqPCyTi/8IvKpkGmoiPeXBR+iQmR/wYMNehhRYTwPHDYQO6KzYUQhxvzk12khGjEggYKNAcSQuxFFgkZvPMxoSf79Czk+I2bBDp95zZfG7SxYFtAF5sQYm+7GD9AE7v8GYJ74qJmNIoIcfhnlTdhyAlRizPm8VdsHPhJdiPgIuSzuAHhdzvK+6EYCDXxaeJxNhWMa+QgyglTh1mfYwPcqmFLOSHEofXJpWaOk6rwrBhLp3FTcT/woj+ZSVAzDYf6uPrCqcgiWtUoYk8OPoy/C8sy2ml3QzIjmakyHvNdWNLxLRVeU8yHxtfpPnKTpteMiSWfCnEZg/nnJfFr1/3x3xtaEVJJsHPQxh6+M2Eyzprpvw47MveZwqYJSwlRQhcbSaQ18YrII6rDyWQSHexNJ2MIm8RqCa5GrULVgDBdhH3SlidI7ZMHk1tIGZoByji+OhMLSrhhkiCwXMnaQiOGf5a4EmQ55bBBTFxJiIMzSombuXUzVJK53cr/8lmiVy0vI2KslxOlm4whpsmlByi5EsL0sKEQKAGak4wBbWIlIQ7pClqKIwFIBFS/pAqMNwkhl4xOscR7DE069Wv3TgKBloysL1U77YFXhMM1hCqvrQMalnC5rnpI88VX0aDVmCJB8KK9ONRk5CYSefZfj4KBFoUo5YgdpiKsEVU7XVEQVkVRJmmSZyRg9WfllxLZU/QpjOji+BaRNNQeM4HRCpqc9KXxwaKBwNUu3qvqLtQpZr4uYY39a6PfjtfhOEUEszUVwDNN/BqgBkVmOTyj7B06dddE74hI7RnnpK/IwZqCm5Gd5+1QTzzKYGWd+7AZ3b8xjk+Ep2aLeXJn2l9hydEswpoLk8mN9pyfH4KQYymLwdjkuMKPIEz0Jjo2jXAUc73vTQaDSW+/TcrfMbPvrdfdo/xlIdwl5na02q/m68X5G3CdhM/ILdLd9zqTwSTMt98lOfps1ve8tdf9XMhdTsEPa+vVctoJbLZO893/8RapZH2d/RZWWBGdEAv8NK9wlW1aluVG34ARFckZ7XCvBU3tmTjXx7Id9Ym4He/SYMyVXFFJNYagiaTjyC1MJRFCB9JVNcrvPnU5hHARcWWd+ftUEiF0/Fz9roB7VA4h8lLpBDYLUzmEyDWI0xh+VUUThrv4UlvO8P4WjVyt4lQwYTCiDN6/3mi4f5Cf3EqOyVIL41KrhRRLGAWtx9P6yHtb2Ka963+nF/5ldsOCCfUcA9PnJUzlYMu1LrMbFkuIgzNy4dyOX1ahhHqbZsp9hAUT6gD2dF+6UpCKJMQp/lIN8zdoF6siCVHSkFTjWdmVs4ok1Niz2F6UXoKh2H6YufPRCD2E5VfoK3jGb+0z5nx/V+aqKVLBdqljkd2mPk0HhwaHxn2vqbhZxa+euGkF64t/3mi+95eB/P28seV49115+q31Ybj1xWInWa6qnEkpetXzfn69CJ9fL8Ln14vw+fUifH69CJ9fL8Ln14vw+fUifH69CJ9fL8Ln14vw+fUifH6FhNT8yyL1WmfT+MvavNckkb6/pf9Hpw3/x7gwVwAAAABJRU5ErkJggg==;" vertex="1" parent="1">
          <mxGeometry x="-112" y="232" width="60.27" height="60" as="geometry" />
        </mxCell>
        <mxCell id="7Kn5XyeDIOlXOPeCKVWs-7" value="Pilot A" style="shape=umlActor;verticalLabelPosition=bottom;verticalAlign=top;html=1;outlineConnect=0;" vertex="1" parent="1">
          <mxGeometry x="610" y="110" width="30" height="60" as="geometry" />
        </mxCell>
        <mxCell id="7Kn5XyeDIOlXOPeCKVWs-31" style="edgeStyle=orthogonalEdgeStyle;rounded=0;orthogonalLoop=1;jettySize=auto;html=1;" edge="1" parent="1" source="7Kn5XyeDIOlXOPeCKVWs-8" target="7Kn5XyeDIOlXOPeCKVWs-15">
          <mxGeometry relative="1" as="geometry" />
        </mxCell>
        <mxCell id="7Kn5XyeDIOlXOPeCKVWs-32" style="edgeStyle=orthogonalEdgeStyle;rounded=0;orthogonalLoop=1;jettySize=auto;html=1;" edge="1" parent="1" source="7Kn5XyeDIOlXOPeCKVWs-8" target="7Kn5XyeDIOlXOPeCKVWs-26">
          <mxGeometry relative="1" as="geometry" />
        </mxCell>
        <mxCell id="7Kn5XyeDIOlXOPeCKVWs-72" style="edgeStyle=orthogonalEdgeStyle;rounded=0;orthogonalLoop=1;jettySize=auto;html=1;exitX=1;exitY=0.5;exitDx=0;exitDy=0;exitPerimeter=0;fontSize=7;startArrow=none;startFill=0;" edge="1" parent="1" source="7Kn5XyeDIOlXOPeCKVWs-8" target="7Kn5XyeDIOlXOPeCKVWs-64">
          <mxGeometry relative="1" as="geometry" />
        </mxCell>
        <mxCell id="7Kn5XyeDIOlXOPeCKVWs-8" value="Carnet de vol pilote" style="shape=cylinder3;whiteSpace=wrap;html=1;boundedLbl=1;backgroundOutline=1;size=15;" vertex="1" parent="1">
          <mxGeometry x="755" y="410" width="60" height="80" as="geometry" />
        </mxCell>
        <mxCell id="7Kn5XyeDIOlXOPeCKVWs-12" value="Recup A" style="shape=umlActor;verticalLabelPosition=bottom;verticalAlign=top;html=1;outlineConnect=0;" vertex="1" parent="1">
          <mxGeometry x="686.15" y="110" width="30" height="60" as="geometry" />
        </mxCell>
        <mxCell id="7Kn5XyeDIOlXOPeCKVWs-15" value="Pilote" style="swimlane;fontStyle=0;childLayout=stackLayout;horizontal=1;startSize=26;horizontalStack=0;resizeParent=1;resizeParentMax=0;resizeLast=0;collapsible=1;marginBottom=0;" vertex="1" parent="1">
          <mxGeometry x="540" y="540" width="140" height="104" as="geometry">
            <mxRectangle x="414" y="390" width="60" height="26" as="alternateBounds" />
          </mxGeometry>
        </mxCell>
        <mxCell id="7Kn5XyeDIOlXOPeCKVWs-25" value="Numéro de licence" style="text;strokeColor=none;fillColor=none;align=left;verticalAlign=top;spacingLeft=4;spacingRight=4;overflow=hidden;rotatable=0;points=[[0,0.5],[1,0.5]];portConstraint=eastwest;" vertex="1" parent="7Kn5XyeDIOlXOPeCKVWs-15">
          <mxGeometry y="26" width="140" height="26" as="geometry" />
        </mxCell>
        <mxCell id="7Kn5XyeDIOlXOPeCKVWs-16" value="Nom / Prénom" style="text;strokeColor=none;fillColor=none;align=left;verticalAlign=top;spacingLeft=4;spacingRight=4;overflow=hidden;rotatable=0;points=[[0,0.5],[1,0.5]];portConstraint=eastwest;" vertex="1" parent="7Kn5XyeDIOlXOPeCKVWs-15">
          <mxGeometry y="52" width="140" height="26" as="geometry" />
        </mxCell>
        <mxCell id="7Kn5XyeDIOlXOPeCKVWs-17" value="Dernière visite médicale" style="text;strokeColor=none;fillColor=none;align=left;verticalAlign=top;spacingLeft=4;spacingRight=4;overflow=hidden;rotatable=0;points=[[0,0.5],[1,0.5]];portConstraint=eastwest;" vertex="1" parent="7Kn5XyeDIOlXOPeCKVWs-15">
          <mxGeometry y="78" width="140" height="26" as="geometry" />
        </mxCell>
        <mxCell id="7Kn5XyeDIOlXOPeCKVWs-26" value="Vol" style="swimlane;fontStyle=0;childLayout=stackLayout;horizontal=1;startSize=26;horizontalStack=0;resizeParent=1;resizeParentMax=0;resizeLast=0;collapsible=1;marginBottom=0;" vertex="1" parent="1">
          <mxGeometry x="715" y="540" width="140" height="156" as="geometry">
            <mxRectangle x="414" y="390" width="60" height="26" as="alternateBounds" />
          </mxGeometry>
        </mxCell>
        <mxCell id="7Kn5XyeDIOlXOPeCKVWs-27" value="Pilote" style="text;strokeColor=none;fillColor=none;align=left;verticalAlign=top;spacingLeft=4;spacingRight=4;overflow=hidden;rotatable=0;points=[[0,0.5],[1,0.5]];portConstraint=eastwest;" vertex="1" parent="7Kn5XyeDIOlXOPeCKVWs-26">
          <mxGeometry y="26" width="140" height="26" as="geometry" />
        </mxCell>
        <mxCell id="7Kn5XyeDIOlXOPeCKVWs-28" value="Ballon" style="text;strokeColor=none;fillColor=none;align=left;verticalAlign=top;spacingLeft=4;spacingRight=4;overflow=hidden;rotatable=0;points=[[0,0.5],[1,0.5]];portConstraint=eastwest;" vertex="1" parent="7Kn5XyeDIOlXOPeCKVWs-26">
          <mxGeometry y="52" width="140" height="26" as="geometry" />
        </mxCell>
        <mxCell id="7Kn5XyeDIOlXOPeCKVWs-29" value="Heure déco / aterro" style="text;strokeColor=none;fillColor=none;align=left;verticalAlign=top;spacingLeft=4;spacingRight=4;overflow=hidden;rotatable=0;points=[[0,0.5],[1,0.5]];portConstraint=eastwest;" vertex="1" parent="7Kn5XyeDIOlXOPeCKVWs-26">
          <mxGeometry y="78" width="140" height="26" as="geometry" />
        </mxCell>
        <mxCell id="7Kn5XyeDIOlXOPeCKVWs-30" value="Lieu déco / atterri" style="text;strokeColor=none;fillColor=none;align=left;verticalAlign=top;spacingLeft=4;spacingRight=4;overflow=hidden;rotatable=0;points=[[0,0.5],[1,0.5]];portConstraint=eastwest;" vertex="1" parent="7Kn5XyeDIOlXOPeCKVWs-26">
          <mxGeometry y="104" width="140" height="26" as="geometry" />
        </mxCell>
        <mxCell id="7Kn5XyeDIOlXOPeCKVWs-33" value="Trace du vol" style="text;strokeColor=none;fillColor=none;align=left;verticalAlign=top;spacingLeft=4;spacingRight=4;overflow=hidden;rotatable=0;points=[[0,0.5],[1,0.5]];portConstraint=eastwest;" vertex="1" parent="7Kn5XyeDIOlXOPeCKVWs-26">
          <mxGeometry y="130" width="140" height="26" as="geometry" />
        </mxCell>
        <mxCell id="7Kn5XyeDIOlXOPeCKVWs-45" style="edgeStyle=orthogonalEdgeStyle;rounded=0;orthogonalLoop=1;jettySize=auto;html=1;exitX=0.5;exitY=1;exitDx=0;exitDy=0;startArrow=classic;startFill=1;" edge="1" parent="1" source="7Kn5XyeDIOlXOPeCKVWs-35" target="7Kn5XyeDIOlXOPeCKVWs-8">
          <mxGeometry relative="1" as="geometry" />
        </mxCell>
        <mxCell id="7Kn5XyeDIOlXOPeCKVWs-50" style="rounded=0;orthogonalLoop=1;jettySize=auto;html=1;exitX=0;exitY=0.25;exitDx=0;exitDy=0;fontSize=7;startArrow=none;startFill=0;edgeStyle=orthogonalEdgeStyle;" edge="1" parent="1" source="7Kn5XyeDIOlXOPeCKVWs-35" target="7Kn5XyeDIOlXOPeCKVWs-36">
          <mxGeometry relative="1" as="geometry">
            <mxPoint x="682.1456310679611" y="286.88349514563106" as="targetPoint" />
          </mxGeometry>
        </mxCell>
        <mxCell id="7Kn5XyeDIOlXOPeCKVWs-62" style="edgeStyle=orthogonalEdgeStyle;rounded=0;orthogonalLoop=1;jettySize=auto;html=1;exitX=1;exitY=0.75;exitDx=0;exitDy=0;entryX=0.575;entryY=0.913;entryDx=0;entryDy=0;entryPerimeter=0;fontSize=7;startArrow=none;startFill=0;" edge="1" parent="1" source="7Kn5XyeDIOlXOPeCKVWs-35" target="7Kn5XyeDIOlXOPeCKVWs-38">
          <mxGeometry relative="1" as="geometry" />
        </mxCell>
        <mxCell id="7Kn5XyeDIOlXOPeCKVWs-35" value="Backend" style="rounded=0;whiteSpace=wrap;html=1;" vertex="1" parent="1">
          <mxGeometry x="745" y="330" width="80" height="40" as="geometry" />
        </mxCell>
        <mxCell id="7Kn5XyeDIOlXOPeCKVWs-36" value="" style="pointerEvents=1;shadow=0;dashed=0;html=1;strokeColor=none;fillColor=#505050;labelPosition=center;verticalLabelPosition=bottom;verticalAlign=top;outlineConnect=0;align=center;shape=mxgraph.office.devices.ipad_mini;rotation=-90;" vertex="1" parent="1">
          <mxGeometry x="670.15" y="184.85" width="62" height="88.3" as="geometry" />
        </mxCell>
        <mxCell id="7Kn5XyeDIOlXOPeCKVWs-37" value="" style="pointerEvents=1;shadow=0;dashed=0;html=1;strokeColor=none;fillColor=#505050;labelPosition=center;verticalLabelPosition=bottom;verticalAlign=top;outlineConnect=0;align=center;shape=mxgraph.office.devices.cell_phone_iphone_proportional;" vertex="1" parent="1">
          <mxGeometry x="606.24" y="201.5" width="23.15" height="39.5" as="geometry" />
        </mxCell>
        <mxCell id="7Kn5XyeDIOlXOPeCKVWs-38" value="" style="verticalLabelPosition=bottom;verticalAlign=top;html=1;shadow=0;dashed=0;strokeWidth=1;shape=mxgraph.android.phone2;strokeColor=#c0c0c0;" vertex="1" parent="1">
          <mxGeometry x="977.52" y="203.1" width="22" height="42.9" as="geometry" />
        </mxCell>
        <mxCell id="7Kn5XyeDIOlXOPeCKVWs-71" style="edgeStyle=orthogonalEdgeStyle;rounded=0;orthogonalLoop=1;jettySize=auto;html=1;entryX=0.993;entryY=0.171;entryDx=0;entryDy=0;entryPerimeter=0;fontSize=7;startArrow=none;startFill=0;" edge="1" parent="1" source="7Kn5XyeDIOlXOPeCKVWs-39" target="7Kn5XyeDIOlXOPeCKVWs-35">
          <mxGeometry relative="1" as="geometry" />
        </mxCell>
        <mxCell id="7Kn5XyeDIOlXOPeCKVWs-39" value="" style="verticalLabelPosition=bottom;verticalAlign=top;html=1;shadow=0;dashed=0;strokeWidth=1;shape=mxgraph.android.tab2;strokeColor=#c0c0c0;direction=north;" vertex="1" parent="1">
          <mxGeometry x="870.1899999999999" y="201.64000000000001" width="76.28" height="52.48" as="geometry" />
        </mxCell>
        <mxCell id="7Kn5XyeDIOlXOPeCKVWs-44" style="edgeStyle=orthogonalEdgeStyle;rounded=0;orthogonalLoop=1;jettySize=auto;html=1;exitX=0.5;exitY=1;exitDx=0;exitDy=0;entryX=0;entryY=0.75;entryDx=0;entryDy=0;" edge="1" parent="1" source="7Kn5XyeDIOlXOPeCKVWs-40" target="7Kn5XyeDIOlXOPeCKVWs-35">
          <mxGeometry relative="1" as="geometry" />
        </mxCell>
        <mxCell id="7Kn5XyeDIOlXOPeCKVWs-40" value="" style="rounded=0;whiteSpace=wrap;html=1;fillColor=#dae8fc;strokeColor=#6c8ebf;" vertex="1" parent="1">
          <mxGeometry x="610" y="210" width="15" height="22" as="geometry" />
        </mxCell>
        <mxCell id="7Kn5XyeDIOlXOPeCKVWs-41" value="" style="rounded=0;whiteSpace=wrap;html=1;fillColor=#dae8fc;strokeColor=#6c8ebf;" vertex="1" parent="1">
          <mxGeometry x="669.15" y="205.38" width="64" height="45" as="geometry" />
        </mxCell>
        <mxCell id="7Kn5XyeDIOlXOPeCKVWs-42" value="&lt;font style=&quot;font-size: 7px; line-height: 70%;&quot;&gt;Cap&lt;br style=&quot;font-size: 7px;&quot;&gt;Altitude&lt;br style=&quot;font-size: 7px;&quot;&gt;Vitesse&lt;br style=&quot;font-size: 7px;&quot;&gt;Position&lt;/font&gt;" style="text;html=1;strokeColor=none;fillColor=none;align=left;verticalAlign=middle;whiteSpace=wrap;rounded=0;spacing=1;fontSize=7;" vertex="1" parent="1">
          <mxGeometry x="577.48" y="205.38" width="28.76" height="31.25" as="geometry" />
        </mxCell>
        <mxCell id="7Kn5XyeDIOlXOPeCKVWs-46" value="&lt;span style=&quot;font-size: 8px&quot;&gt;&lt;i&gt;iPhone&lt;/i&gt;&lt;/span&gt;" style="text;html=1;strokeColor=none;fillColor=none;align=left;verticalAlign=middle;whiteSpace=wrap;rounded=0;" vertex="1" parent="1">
          <mxGeometry x="603.59" y="241" width="28.44" height="14" as="geometry" />
        </mxCell>
        <mxCell id="7Kn5XyeDIOlXOPeCKVWs-47" value="&lt;span style=&quot;font-size: 8px&quot;&gt;&lt;i&gt;iPad&lt;/i&gt;&lt;/span&gt;" style="text;html=1;strokeColor=none;fillColor=none;align=left;verticalAlign=middle;whiteSpace=wrap;rounded=0;" vertex="1" parent="1">
          <mxGeometry x="709" y="259.15" width="28.44" height="14" as="geometry" />
        </mxCell>
        <mxCell id="7Kn5XyeDIOlXOPeCKVWs-49" value="Position du véhicule&lt;br&gt;Position du ballon avec cap + vitesse" style="text;html=1;strokeColor=none;fillColor=none;align=left;verticalAlign=middle;whiteSpace=wrap;rounded=0;spacing=1;fontSize=7;" vertex="1" parent="1">
          <mxGeometry x="669.15" y="210" width="65" height="31.25" as="geometry" />
        </mxCell>
        <mxCell id="7Kn5XyeDIOlXOPeCKVWs-51" value="Pilot B" style="shape=umlActor;verticalLabelPosition=bottom;verticalAlign=top;html=1;outlineConnect=0;" vertex="1" parent="1">
          <mxGeometry x="900.52" y="110" width="30" height="60" as="geometry" />
        </mxCell>
        <mxCell id="7Kn5XyeDIOlXOPeCKVWs-52" value="Recup B" style="shape=umlActor;verticalLabelPosition=bottom;verticalAlign=top;html=1;outlineConnect=0;" vertex="1" parent="1">
          <mxGeometry x="976.67" y="110" width="30" height="60" as="geometry" />
        </mxCell>
        <mxCell id="7Kn5XyeDIOlXOPeCKVWs-55" value="" style="rounded=0;whiteSpace=wrap;html=1;fillColor=#dae8fc;strokeColor=#6c8ebf;" vertex="1" parent="1">
          <mxGeometry x="879.11" y="210" width="58.89" height="36" as="geometry" />
        </mxCell>
        <mxCell id="7Kn5XyeDIOlXOPeCKVWs-56" value="" style="rounded=0;whiteSpace=wrap;html=1;fillColor=#dae8fc;strokeColor=#6c8ebf;" vertex="1" parent="1">
          <mxGeometry x="978.83" y="210" width="19.37" height="30" as="geometry" />
        </mxCell>
        <mxCell id="7Kn5XyeDIOlXOPeCKVWs-57" value="&lt;font style=&quot;font-size: 7px; line-height: 70%;&quot;&gt;Cap&lt;br style=&quot;font-size: 7px;&quot;&gt;Altitude&lt;br style=&quot;font-size: 7px;&quot;&gt;Vitesse&lt;br style=&quot;font-size: 7px;&quot;&gt;Position&lt;/font&gt;" style="text;html=1;strokeColor=none;fillColor=none;align=left;verticalAlign=middle;whiteSpace=wrap;rounded=0;spacing=1;fontSize=7;" vertex="1" parent="1">
          <mxGeometry x="886" y="212.26" width="28.76" height="31.25" as="geometry" />
        </mxCell>
        <mxCell id="7Kn5XyeDIOlXOPeCKVWs-58" value="&lt;span style=&quot;font-size: 8px&quot;&gt;&lt;i&gt;Tablette Android&lt;br&gt;&lt;/i&gt;&lt;/span&gt;" style="text;html=1;strokeColor=none;fillColor=none;align=left;verticalAlign=middle;whiteSpace=wrap;rounded=0;" vertex="1" parent="1">
          <mxGeometry x="876.8399999999999" y="255" width="63.44" height="14" as="geometry" />
        </mxCell>
        <mxCell id="7Kn5XyeDIOlXOPeCKVWs-59" value="&lt;span style=&quot;font-size: 8px&quot;&gt;&lt;i&gt;Téléphone Android&lt;br&gt;&lt;/i&gt;&lt;/span&gt;" style="text;html=1;strokeColor=none;fillColor=none;align=left;verticalAlign=middle;whiteSpace=wrap;rounded=0;" vertex="1" parent="1">
          <mxGeometry x="955.93" y="250.37999999999997" width="71.48" height="14" as="geometry" />
        </mxCell>
        <mxCell id="7Kn5XyeDIOlXOPeCKVWs-60" value="Position du véhicule&lt;br&gt;Position du ballon avec cap + vitesse" style="text;html=1;strokeColor=none;fillColor=none;align=left;verticalAlign=middle;whiteSpace=wrap;rounded=0;spacing=1;fontSize=7;" vertex="1" parent="1">
          <mxGeometry x="1002" y="208.93" width="65" height="31.25" as="geometry" />
        </mxCell>
        <mxCell id="7Kn5XyeDIOlXOPeCKVWs-64" value="Vol en cours ?" style="swimlane;fontStyle=0;childLayout=stackLayout;horizontal=1;startSize=26;horizontalStack=0;resizeParent=1;resizeParentMax=0;resizeLast=0;collapsible=1;marginBottom=0;" vertex="1" parent="1">
          <mxGeometry x="894" y="540" width="140" height="130" as="geometry">
            <mxRectangle x="414" y="390" width="60" height="26" as="alternateBounds" />
          </mxGeometry>
        </mxCell>
        <mxCell id="7Kn5XyeDIOlXOPeCKVWs-65" value="Pilote" style="text;strokeColor=none;fillColor=none;align=left;verticalAlign=top;spacingLeft=4;spacingRight=4;overflow=hidden;rotatable=0;points=[[0,0.5],[1,0.5]];portConstraint=eastwest;" vertex="1" parent="7Kn5XyeDIOlXOPeCKVWs-64">
          <mxGeometry y="26" width="140" height="26" as="geometry" />
        </mxCell>
        <mxCell id="7Kn5XyeDIOlXOPeCKVWs-66" value="Ballon" style="text;strokeColor=none;fillColor=none;align=left;verticalAlign=top;spacingLeft=4;spacingRight=4;overflow=hidden;rotatable=0;points=[[0,0.5],[1,0.5]];portConstraint=eastwest;" vertex="1" parent="7Kn5XyeDIOlXOPeCKVWs-64">
          <mxGeometry y="52" width="140" height="26" as="geometry" />
        </mxCell>
        <mxCell id="7Kn5XyeDIOlXOPeCKVWs-67" value="Dernier point connu" style="text;strokeColor=none;fillColor=none;align=left;verticalAlign=top;spacingLeft=4;spacingRight=4;overflow=hidden;rotatable=0;points=[[0,0.5],[1,0.5]];portConstraint=eastwest;" vertex="1" parent="7Kn5XyeDIOlXOPeCKVWs-64">
          <mxGeometry y="78" width="140" height="26" as="geometry" />
        </mxCell>
        <mxCell id="7Kn5XyeDIOlXOPeCKVWs-68" value="Partage avec qui ?" style="text;strokeColor=none;fillColor=none;align=left;verticalAlign=top;spacingLeft=4;spacingRight=4;overflow=hidden;rotatable=0;points=[[0,0.5],[1,0.5]];portConstraint=eastwest;" vertex="1" parent="7Kn5XyeDIOlXOPeCKVWs-64">
          <mxGeometry y="104" width="140" height="26" as="geometry" />
        </mxCell>
        <mxCell id="7Kn5XyeDIOlXOPeCKVWs-115" style="edgeStyle=orthogonalEdgeStyle;rounded=0;orthogonalLoop=1;jettySize=auto;html=1;exitX=0.5;exitY=1;exitDx=0;exitDy=0;exitPerimeter=0;entryX=0.5;entryY=0;entryDx=0;entryDy=0;fontSize=12;startArrow=none;startFill=0;" edge="1" parent="1" source="7Kn5XyeDIOlXOPeCKVWs-74" target="7Kn5XyeDIOlXOPeCKVWs-93">
          <mxGeometry relative="1" as="geometry" />
        </mxCell>
        <mxCell id="7Kn5XyeDIOlXOPeCKVWs-116" style="edgeStyle=orthogonalEdgeStyle;rounded=0;orthogonalLoop=1;jettySize=auto;html=1;exitX=0.5;exitY=1;exitDx=0;exitDy=0;exitPerimeter=0;fontSize=12;startArrow=none;startFill=0;" edge="1" parent="1" source="7Kn5XyeDIOlXOPeCKVWs-74" target="7Kn5XyeDIOlXOPeCKVWs-76">
          <mxGeometry relative="1" as="geometry" />
        </mxCell>
        <mxCell id="7Kn5XyeDIOlXOPeCKVWs-125" style="edgeStyle=orthogonalEdgeStyle;rounded=0;orthogonalLoop=1;jettySize=auto;html=1;exitX=0.5;exitY=1;exitDx=0;exitDy=0;exitPerimeter=0;fontSize=12;startArrow=none;startFill=0;" edge="1" parent="1" source="7Kn5XyeDIOlXOPeCKVWs-74" target="7Kn5XyeDIOlXOPeCKVWs-82">
          <mxGeometry relative="1" as="geometry" />
        </mxCell>
        <mxCell id="7Kn5XyeDIOlXOPeCKVWs-126" style="edgeStyle=orthogonalEdgeStyle;rounded=0;orthogonalLoop=1;jettySize=auto;html=1;exitX=0.5;exitY=1;exitDx=0;exitDy=0;exitPerimeter=0;entryX=0.5;entryY=0;entryDx=0;entryDy=0;fontSize=12;startArrow=none;startFill=0;" edge="1" parent="1" source="7Kn5XyeDIOlXOPeCKVWs-74" target="7Kn5XyeDIOlXOPeCKVWs-88">
          <mxGeometry relative="1" as="geometry" />
        </mxCell>
        <mxCell id="7Kn5XyeDIOlXOPeCKVWs-74" value="Calpax" style="shape=cylinder3;whiteSpace=wrap;html=1;boundedLbl=1;backgroundOutline=1;size=15;" vertex="1" parent="1">
          <mxGeometry x="169" y="392" width="60" height="80" as="geometry" />
        </mxCell>
        <mxCell id="7Kn5XyeDIOlXOPeCKVWs-124" style="edgeStyle=orthogonalEdgeStyle;rounded=0;orthogonalLoop=1;jettySize=auto;html=1;exitX=0.5;exitY=1;exitDx=0;exitDy=0;fontSize=12;startArrow=none;startFill=0;" edge="1" parent="1" source="7Kn5XyeDIOlXOPeCKVWs-75" target="7Kn5XyeDIOlXOPeCKVWs-74">
          <mxGeometry relative="1" as="geometry" />
        </mxCell>
        <mxCell id="7Kn5XyeDIOlXOPeCKVWs-129" style="edgeStyle=orthogonalEdgeStyle;rounded=0;orthogonalLoop=1;jettySize=auto;html=1;exitX=0;exitY=0.5;exitDx=0;exitDy=0;entryX=1;entryY=0.5;entryDx=0;entryDy=0;fontSize=12;startArrow=none;startFill=0;" edge="1" parent="1" source="7Kn5XyeDIOlXOPeCKVWs-75" target="7Kn5XyeDIOlXOPeCKVWs-1">
          <mxGeometry relative="1" as="geometry">
            <Array as="points">
              <mxPoint x="2" y="340" />
              <mxPoint x="2" y="262" />
            </Array>
          </mxGeometry>
        </mxCell>
        <mxCell id="7Kn5XyeDIOlXOPeCKVWs-75" value="Backend" style="rounded=0;whiteSpace=wrap;html=1;" vertex="1" parent="1">
          <mxGeometry x="159" y="320" width="80" height="40" as="geometry" />
        </mxCell>
        <mxCell id="7Kn5XyeDIOlXOPeCKVWs-76" value="Passager" style="swimlane;fontStyle=0;childLayout=stackLayout;horizontal=1;startSize=26;horizontalStack=0;resizeParent=1;resizeParentMax=0;resizeLast=0;collapsible=1;marginBottom=0;" vertex="1" parent="1">
          <mxGeometry x="-26" y="517" width="140" height="104" as="geometry">
            <mxRectangle x="414" y="390" width="60" height="26" as="alternateBounds" />
          </mxGeometry>
        </mxCell>
        <mxCell id="7Kn5XyeDIOlXOPeCKVWs-78" value="Nom / Prénom" style="text;strokeColor=none;fillColor=none;align=left;verticalAlign=top;spacingLeft=4;spacingRight=4;overflow=hidden;rotatable=0;points=[[0,0.5],[1,0.5]];portConstraint=eastwest;" vertex="1" parent="7Kn5XyeDIOlXOPeCKVWs-76">
          <mxGeometry y="26" width="140" height="26" as="geometry" />
        </mxCell>
        <mxCell id="7Kn5XyeDIOlXOPeCKVWs-80" value="Poids" style="text;strokeColor=none;fillColor=none;align=left;verticalAlign=top;spacingLeft=4;spacingRight=4;overflow=hidden;rotatable=0;points=[[0,0.5],[1,0.5]];portConstraint=eastwest;fontSize=12;" vertex="1" parent="7Kn5XyeDIOlXOPeCKVWs-76">
          <mxGeometry y="52" width="140" height="26" as="geometry" />
        </mxCell>
        <mxCell id="7Kn5XyeDIOlXOPeCKVWs-79" value="Téléphone / Mail" style="text;strokeColor=none;fillColor=none;align=left;verticalAlign=top;spacingLeft=4;spacingRight=4;overflow=hidden;rotatable=0;points=[[0,0.5],[1,0.5]];portConstraint=eastwest;" vertex="1" parent="7Kn5XyeDIOlXOPeCKVWs-76">
          <mxGeometry y="78" width="140" height="26" as="geometry" />
        </mxCell>
        <mxCell id="7Kn5XyeDIOlXOPeCKVWs-81" value="GDPR : Données à supprimer après vol" style="text;html=1;strokeColor=none;fillColor=none;align=center;verticalAlign=middle;whiteSpace=wrap;rounded=0;fontSize=12;fontStyle=2" vertex="1" parent="1">
          <mxGeometry x="-18" y="626" width="124" height="27" as="geometry" />
        </mxCell>
        <mxCell id="7Kn5XyeDIOlXOPeCKVWs-82" value="Pilote" style="swimlane;fontStyle=0;childLayout=stackLayout;horizontal=1;startSize=26;horizontalStack=0;resizeParent=1;resizeParentMax=0;resizeLast=0;collapsible=1;marginBottom=0;" vertex="1" parent="1">
          <mxGeometry x="127" y="517" width="140" height="130" as="geometry">
            <mxRectangle x="414" y="390" width="60" height="26" as="alternateBounds" />
          </mxGeometry>
        </mxCell>
        <mxCell id="7Kn5XyeDIOlXOPeCKVWs-83" value="Numéro de licence" style="text;strokeColor=none;fillColor=none;align=left;verticalAlign=top;spacingLeft=4;spacingRight=4;overflow=hidden;rotatable=0;points=[[0,0.5],[1,0.5]];portConstraint=eastwest;" vertex="1" parent="7Kn5XyeDIOlXOPeCKVWs-82">
          <mxGeometry y="26" width="140" height="26" as="geometry" />
        </mxCell>
        <mxCell id="7Kn5XyeDIOlXOPeCKVWs-86" value="Nom / Prénom" style="text;strokeColor=none;fillColor=none;align=left;verticalAlign=top;spacingLeft=4;spacingRight=4;overflow=hidden;rotatable=0;points=[[0,0.5],[1,0.5]];portConstraint=eastwest;fontSize=12;" vertex="1" parent="7Kn5XyeDIOlXOPeCKVWs-82">
          <mxGeometry y="52" width="140" height="26" as="geometry" />
        </mxCell>
        <mxCell id="7Kn5XyeDIOlXOPeCKVWs-84" value="Poids" style="text;strokeColor=none;fillColor=none;align=left;verticalAlign=top;spacingLeft=4;spacingRight=4;overflow=hidden;rotatable=0;points=[[0,0.5],[1,0.5]];portConstraint=eastwest;fontSize=12;" vertex="1" parent="7Kn5XyeDIOlXOPeCKVWs-82">
          <mxGeometry y="78" width="140" height="26" as="geometry" />
        </mxCell>
        <mxCell id="7Kn5XyeDIOlXOPeCKVWs-85" value="Téléphone / Mail" style="text;strokeColor=none;fillColor=none;align=left;verticalAlign=top;spacingLeft=4;spacingRight=4;overflow=hidden;rotatable=0;points=[[0,0.5],[1,0.5]];portConstraint=eastwest;" vertex="1" parent="7Kn5XyeDIOlXOPeCKVWs-82">
          <mxGeometry y="104" width="140" height="26" as="geometry" />
        </mxCell>
        <mxCell id="7Kn5XyeDIOlXOPeCKVWs-88" value="Ballon" style="swimlane;fontStyle=0;childLayout=stackLayout;horizontal=1;startSize=26;horizontalStack=0;resizeParent=1;resizeParentMax=0;resizeLast=0;collapsible=1;marginBottom=0;" vertex="1" parent="1">
          <mxGeometry x="280" y="517" width="140" height="130" as="geometry">
            <mxRectangle x="414" y="390" width="60" height="26" as="alternateBounds" />
          </mxGeometry>
        </mxCell>
        <mxCell id="7Kn5XyeDIOlXOPeCKVWs-89" value="Immatriculation" style="text;strokeColor=none;fillColor=none;align=left;verticalAlign=top;spacingLeft=4;spacingRight=4;overflow=hidden;rotatable=0;points=[[0,0.5],[1,0.5]];portConstraint=eastwest;" vertex="1" parent="7Kn5XyeDIOlXOPeCKVWs-88">
          <mxGeometry y="26" width="140" height="26" as="geometry" />
        </mxCell>
        <mxCell id="7Kn5XyeDIOlXOPeCKVWs-90" value="Nom" style="text;strokeColor=none;fillColor=none;align=left;verticalAlign=top;spacingLeft=4;spacingRight=4;overflow=hidden;rotatable=0;points=[[0,0.5],[1,0.5]];portConstraint=eastwest;fontSize=12;" vertex="1" parent="7Kn5XyeDIOlXOPeCKVWs-88">
          <mxGeometry y="52" width="140" height="26" as="geometry" />
        </mxCell>
        <mxCell id="7Kn5XyeDIOlXOPeCKVWs-91" value="Date dernier contrôle&#xa;" style="text;strokeColor=none;fillColor=none;align=left;verticalAlign=top;spacingLeft=4;spacingRight=4;overflow=hidden;rotatable=0;points=[[0,0.5],[1,0.5]];portConstraint=eastwest;fontSize=12;" vertex="1" parent="7Kn5XyeDIOlXOPeCKVWs-88">
          <mxGeometry y="78" width="140" height="26" as="geometry" />
        </mxCell>
        <mxCell id="7Kn5XyeDIOlXOPeCKVWs-92" value="Courbe de charge" style="text;strokeColor=none;fillColor=none;align=left;verticalAlign=top;spacingLeft=4;spacingRight=4;overflow=hidden;rotatable=0;points=[[0,0.5],[1,0.5]];portConstraint=eastwest;" vertex="1" parent="7Kn5XyeDIOlXOPeCKVWs-88">
          <mxGeometry y="104" width="140" height="26" as="geometry" />
        </mxCell>
        <mxCell id="7Kn5XyeDIOlXOPeCKVWs-93" value="Billet de vol" style="swimlane;fontStyle=0;childLayout=stackLayout;horizontal=1;startSize=26;horizontalStack=0;resizeParent=1;resizeParentMax=0;resizeLast=0;collapsible=1;marginBottom=0;" vertex="1" parent="1">
          <mxGeometry x="-211" y="513" width="140" height="104" as="geometry">
            <mxRectangle x="414" y="390" width="60" height="26" as="alternateBounds" />
          </mxGeometry>
        </mxCell>
        <mxCell id="7Kn5XyeDIOlXOPeCKVWs-94" value="Référence" style="text;strokeColor=none;fillColor=none;align=left;verticalAlign=top;spacingLeft=4;spacingRight=4;overflow=hidden;rotatable=0;points=[[0,0.5],[1,0.5]];portConstraint=eastwest;" vertex="1" parent="7Kn5XyeDIOlXOPeCKVWs-93">
          <mxGeometry y="26" width="140" height="26" as="geometry" />
        </mxCell>
        <mxCell id="7Kn5XyeDIOlXOPeCKVWs-95" value="Liste de contacts" style="text;strokeColor=none;fillColor=none;align=left;verticalAlign=top;spacingLeft=4;spacingRight=4;overflow=hidden;rotatable=0;points=[[0,0.5],[1,0.5]];portConstraint=eastwest;fontSize=12;" vertex="1" parent="7Kn5XyeDIOlXOPeCKVWs-93">
          <mxGeometry y="52" width="140" height="26" as="geometry" />
        </mxCell>
        <mxCell id="7Kn5XyeDIOlXOPeCKVWs-96" value="Liste de passagers" style="text;strokeColor=none;fillColor=none;align=left;verticalAlign=top;spacingLeft=4;spacingRight=4;overflow=hidden;rotatable=0;points=[[0,0.5],[1,0.5]];portConstraint=eastwest;" vertex="1" parent="7Kn5XyeDIOlXOPeCKVWs-93">
          <mxGeometry y="78" width="140" height="26" as="geometry" />
        </mxCell>
        <mxCell id="7Kn5XyeDIOlXOPeCKVWs-102" style="edgeStyle=orthogonalEdgeStyle;rounded=0;orthogonalLoop=1;jettySize=auto;html=1;exitX=0.5;exitY=0;exitDx=0;exitDy=0;entryX=0.45;entryY=0.962;entryDx=0;entryDy=0;entryPerimeter=0;fontSize=12;startArrow=none;startFill=0;" edge="1" parent="1" source="7Kn5XyeDIOlXOPeCKVWs-97" target="7Kn5XyeDIOlXOPeCKVWs-85">
          <mxGeometry relative="1" as="geometry" />
        </mxCell>
        <mxCell id="7Kn5XyeDIOlXOPeCKVWs-103" style="edgeStyle=orthogonalEdgeStyle;rounded=0;orthogonalLoop=1;jettySize=auto;html=1;exitX=0.5;exitY=0;exitDx=0;exitDy=0;entryX=0.514;entryY=1.038;entryDx=0;entryDy=0;entryPerimeter=0;fontSize=12;startArrow=none;startFill=0;" edge="1" parent="1" source="7Kn5XyeDIOlXOPeCKVWs-97" target="7Kn5XyeDIOlXOPeCKVWs-92">
          <mxGeometry relative="1" as="geometry" />
        </mxCell>
        <mxCell id="7Kn5XyeDIOlXOPeCKVWs-104" style="edgeStyle=orthogonalEdgeStyle;rounded=0;orthogonalLoop=1;jettySize=auto;html=1;exitX=0.5;exitY=0;exitDx=0;exitDy=0;entryX=0.457;entryY=1;entryDx=0;entryDy=0;entryPerimeter=0;fontSize=12;startArrow=none;startFill=0;" edge="1" parent="1" source="7Kn5XyeDIOlXOPeCKVWs-97" target="7Kn5XyeDIOlXOPeCKVWs-79">
          <mxGeometry relative="1" as="geometry" />
        </mxCell>
        <mxCell id="7Kn5XyeDIOlXOPeCKVWs-97" value="Vol planifié" style="swimlane;fontStyle=0;childLayout=stackLayout;horizontal=1;startSize=26;horizontalStack=0;resizeParent=1;resizeParentMax=0;resizeLast=0;collapsible=1;marginBottom=0;" vertex="1" parent="1">
          <mxGeometry x="120" y="739" width="140" height="130" as="geometry">
            <mxRectangle x="414" y="390" width="60" height="26" as="alternateBounds" />
          </mxGeometry>
        </mxCell>
        <mxCell id="7Kn5XyeDIOlXOPeCKVWs-98" value="Date" style="text;strokeColor=none;fillColor=none;align=left;verticalAlign=top;spacingLeft=4;spacingRight=4;overflow=hidden;rotatable=0;points=[[0,0.5],[1,0.5]];portConstraint=eastwest;" vertex="1" parent="7Kn5XyeDIOlXOPeCKVWs-97">
          <mxGeometry y="26" width="140" height="26" as="geometry" />
        </mxCell>
        <mxCell id="7Kn5XyeDIOlXOPeCKVWs-105" value="Ballon" style="text;strokeColor=none;fillColor=none;align=left;verticalAlign=top;spacingLeft=4;spacingRight=4;overflow=hidden;rotatable=0;points=[[0,0.5],[1,0.5]];portConstraint=eastwest;fontSize=12;" vertex="1" parent="7Kn5XyeDIOlXOPeCKVWs-97">
          <mxGeometry y="52" width="140" height="26" as="geometry" />
        </mxCell>
        <mxCell id="7Kn5XyeDIOlXOPeCKVWs-106" value="Pilote" style="text;strokeColor=none;fillColor=none;align=left;verticalAlign=top;spacingLeft=4;spacingRight=4;overflow=hidden;rotatable=0;points=[[0,0.5],[1,0.5]];portConstraint=eastwest;fontSize=12;" vertex="1" parent="7Kn5XyeDIOlXOPeCKVWs-97">
          <mxGeometry y="78" width="140" height="26" as="geometry" />
        </mxCell>
        <mxCell id="7Kn5XyeDIOlXOPeCKVWs-107" value="Liste de passagers" style="text;strokeColor=none;fillColor=none;align=left;verticalAlign=top;spacingLeft=4;spacingRight=4;overflow=hidden;rotatable=0;points=[[0,0.5],[1,0.5]];portConstraint=eastwest;fontSize=12;" vertex="1" parent="7Kn5XyeDIOlXOPeCKVWs-97">
          <mxGeometry y="104" width="140" height="26" as="geometry" />
        </mxCell>
        <mxCell id="7Kn5XyeDIOlXOPeCKVWs-101" style="edgeStyle=orthogonalEdgeStyle;rounded=0;orthogonalLoop=1;jettySize=auto;html=1;exitX=1;exitY=0.5;exitDx=0;exitDy=0;entryX=0;entryY=0.25;entryDx=0;entryDy=0;fontSize=12;startArrow=none;startFill=0;" edge="1" parent="1" source="7Kn5XyeDIOlXOPeCKVWs-96" target="7Kn5XyeDIOlXOPeCKVWs-76">
          <mxGeometry relative="1" as="geometry" />
        </mxCell>
        <mxCell id="7Kn5XyeDIOlXOPeCKVWs-114" style="edgeStyle=orthogonalEdgeStyle;rounded=0;orthogonalLoop=1;jettySize=auto;html=1;exitX=0.5;exitY=0;exitDx=0;exitDy=0;entryX=0.507;entryY=1;entryDx=0;entryDy=0;entryPerimeter=0;fontSize=12;startArrow=none;startFill=0;" edge="1" parent="1" source="7Kn5XyeDIOlXOPeCKVWs-108" target="7Kn5XyeDIOlXOPeCKVWs-92">
          <mxGeometry relative="1" as="geometry" />
        </mxCell>
        <mxCell id="7Kn5XyeDIOlXOPeCKVWs-108" value="Carnet de vol ballon" style="swimlane;fontStyle=0;childLayout=stackLayout;horizontal=1;startSize=26;horizontalStack=0;resizeParent=1;resizeParentMax=0;resizeLast=0;collapsible=1;marginBottom=0;" vertex="1" parent="1">
          <mxGeometry x="310.14" y="739" width="140" height="104" as="geometry">
            <mxRectangle x="414" y="390" width="60" height="26" as="alternateBounds" />
          </mxGeometry>
        </mxCell>
        <mxCell id="7Kn5XyeDIOlXOPeCKVWs-109" value="Heure déco / aterro" style="text;strokeColor=none;fillColor=none;align=left;verticalAlign=top;spacingLeft=4;spacingRight=4;overflow=hidden;rotatable=0;points=[[0,0.5],[1,0.5]];portConstraint=eastwest;" vertex="1" parent="7Kn5XyeDIOlXOPeCKVWs-108">
          <mxGeometry y="26" width="140" height="26" as="geometry" />
        </mxCell>
        <mxCell id="7Kn5XyeDIOlXOPeCKVWs-110" value="Lieu déco / atterro" style="text;strokeColor=none;fillColor=none;align=left;verticalAlign=top;spacingLeft=4;spacingRight=4;overflow=hidden;rotatable=0;points=[[0,0.5],[1,0.5]];portConstraint=eastwest;fontSize=12;" vertex="1" parent="7Kn5XyeDIOlXOPeCKVWs-108">
          <mxGeometry y="52" width="140" height="26" as="geometry" />
        </mxCell>
        <mxCell id="7Kn5XyeDIOlXOPeCKVWs-112" value="Type de vol (com, form, )" style="text;strokeColor=none;fillColor=none;align=left;verticalAlign=top;spacingLeft=4;spacingRight=4;overflow=hidden;rotatable=0;points=[[0,0.5],[1,0.5]];portConstraint=eastwest;fontSize=12;" vertex="1" parent="7Kn5XyeDIOlXOPeCKVWs-108">
          <mxGeometry y="78" width="140" height="26" as="geometry" />
        </mxCell>
        <mxCell id="7Kn5XyeDIOlXOPeCKVWs-122" style="edgeStyle=orthogonalEdgeStyle;rounded=0;orthogonalLoop=1;jettySize=auto;html=1;fontSize=12;startArrow=none;startFill=0;entryX=0.25;entryY=0;entryDx=0;entryDy=0;" edge="1" parent="1" source="7Kn5XyeDIOlXOPeCKVWs-118" target="7Kn5XyeDIOlXOPeCKVWs-75">
          <mxGeometry relative="1" as="geometry" />
        </mxCell>
        <mxCell id="7Kn5XyeDIOlXOPeCKVWs-118" value="Admin Company A" style="shape=umlActor;verticalLabelPosition=bottom;verticalAlign=top;html=1;outlineConnect=0;" vertex="1" parent="1">
          <mxGeometry x="97" y="137" width="30" height="60" as="geometry" />
        </mxCell>
        <mxCell id="7Kn5XyeDIOlXOPeCKVWs-127" style="edgeStyle=orthogonalEdgeStyle;rounded=0;orthogonalLoop=1;jettySize=auto;html=1;entryX=0.75;entryY=0;entryDx=0;entryDy=0;fontSize=12;startArrow=none;startFill=0;" edge="1" parent="1" source="7Kn5XyeDIOlXOPeCKVWs-119" target="7Kn5XyeDIOlXOPeCKVWs-75">
          <mxGeometry relative="1" as="geometry" />
        </mxCell>
        <mxCell id="7Kn5XyeDIOlXOPeCKVWs-119" value="Admin Club B" style="shape=umlActor;verticalLabelPosition=bottom;verticalAlign=top;html=1;outlineConnect=0;" vertex="1" parent="1">
          <mxGeometry x="294" y="139" width="30" height="60" as="geometry" />
        </mxCell>
        <mxCell id="7Kn5XyeDIOlXOPeCKVWs-120" value="" style="shape=image;html=1;verticalAlign=top;verticalLabelPosition=bottom;labelBackgroundColor=#ffffff;imageAspect=0;aspect=fixed;image=https://cdn1.iconfinder.com/data/icons/science-technology-outline-24-px/24/factory_company_building_manufacturer_powerplant-128.png;fontSize=12;" vertex="1" parent="1">
          <mxGeometry x="133" y="167.1" width="36" height="36" as="geometry" />
        </mxCell>
        <mxCell id="7Kn5XyeDIOlXOPeCKVWs-121" value="" style="shape=image;html=1;verticalAlign=top;verticalLabelPosition=bottom;labelBackgroundColor=#ffffff;imageAspect=0;aspect=fixed;image=https://cdn2.iconfinder.com/data/icons/business-and-finance-383/30/office_business_work_workplace_home_company-_14-128.png;fontSize=12;" vertex="1" parent="1">
          <mxGeometry x="334" y="178.38" width="27" height="27" as="geometry" />
        </mxCell>
        <mxCell id="7Kn5XyeDIOlXOPeCKVWs-128" value="" style="endArrow=none;dashed=1;html=1;dashPattern=1 3;strokeWidth=2;fontSize=12;" edge="1" parent="1">
          <mxGeometry width="50" height="50" relative="1" as="geometry">
            <mxPoint x="494" y="1020" as="sourcePoint" />
            <mxPoint x="494" y="66" as="targetPoint" />
          </mxGeometry>
        </mxCell>
        <mxCell id="7Kn5XyeDIOlXOPeCKVWs-130" value="Possibilité de fournir des exports au format DGAC" style="text;html=1;strokeColor=none;fillColor=none;align=center;verticalAlign=middle;whiteSpace=wrap;rounded=0;fontSize=12;" vertex="1" parent="1">
          <mxGeometry x="5" y="278" width="143" height="28" as="geometry" />
        </mxCell>
        <mxCell id="7Kn5XyeDIOlXOPeCKVWs-131" value="" style="shape=flexArrow;endArrow=classic;html=1;fontSize=12;" edge="1" parent="1">
          <mxGeometry width="50" height="50" relative="1" as="geometry">
            <mxPoint x="610" y="437" as="sourcePoint" />
            <mxPoint x="355" y="437" as="targetPoint" />
          </mxGeometry>
        </mxCell>
        <mxCell id="7Kn5XyeDIOlXOPeCKVWs-132" value="Synchro des données de vol à définir. Faut-il un consentement ?" style="text;html=1;strokeColor=none;fillColor=none;align=center;verticalAlign=middle;whiteSpace=wrap;rounded=0;fontSize=12;fontStyle=2" vertex="1" parent="1">
          <mxGeometry x="385.24" y="404" width="221" height="27" as="geometry" />
        </mxCell>
      </root>
    </mxGraphModel>
  </diagram>
</mxfile>
